<svg width="113" height="114" fill="none" xmlns="http://www.w3.org/2000/svg"><g filter="url(#filter0_f_22_1594)"><path d="M58.118 70.834c-3.647.731-7.348-.03-10.288-2.12-2.94-2.087-4.878-5.33-5.388-9.016-.51-3.685.449-7.51 2.667-10.633 2.219-3.123 5.514-5.289 9.162-6.02 3.647-.732 7.348.03 10.288 2.118 2.94 2.088 4.879 5.332 5.389 9.017.51 3.685-.45 7.51-2.668 10.633-2.219 3.123-5.514 5.289-9.162 6.02zm.642 4.631c4.863-.976 9.257-3.863 12.215-8.027 2.958-4.165 4.237-9.264 3.557-14.178-.68-4.913-3.265-9.238-7.185-12.022-3.92-2.785-8.854-3.8-13.717-2.825-4.864.976-9.258 3.863-12.216 8.027-2.958 4.165-4.237 9.264-3.557 14.178.68 4.913 3.265 9.238 7.185 12.022 3.92 2.785 8.854 3.8 13.718 2.825zm-7.696-55.578a2.2 2.2 0 011.715.353 2.2 2.2 0 01.898 1.503l1.283 9.263a2.486 2.486 0 01-.445 1.772 2.49 2.49 0 01-1.527 1.004 2.201 2.201 0 01-1.715-.354 2.201 2.201 0 01-.898-1.502l-1.282-9.263a2.485 2.485 0 01.444-1.773c.37-.52.92-.881 1.527-1.003zm8.337 60.21a2.2 2.2 0 011.715.353 2.2 2.2 0 01.898 1.502l1.282 9.263a2.486 2.486 0 01-.444 1.773c-.37.52-.92.881-1.527 1.003a2.2 2.2 0 01-1.715-.353 2.201 2.201 0 01-.898-1.503l-1.282-9.263a2.486 2.486 0 01.444-1.772c.37-.52.92-.881 1.527-1.003zM92.87 49.58a2.486 2.486 0 01-.444 1.773c-.37.52-.92.881-1.527 1.003l-9.169 1.84a2.2 2.2 0 01-1.715-.354 2.2 2.2 0 01-.898-1.503 2.486 2.486 0 01.445-1.772c.37-.52.919-.881 1.527-1.003l9.169-1.84a2.2 2.2 0 011.714.354 2.2 2.2 0 01.898 1.502zM33.273 61.537a2.486 2.486 0 01-.445 1.773c-.37.52-.919.881-1.527 1.003l-9.168 1.84a2.201 2.201 0 01-1.715-.354 2.201 2.201 0 01-.898-1.502 2.486 2.486 0 01.445-1.773c.37-.52.919-.881 1.526-1.003l9.17-1.84a2.2 2.2 0 011.714.354 2.2 2.2 0 01.898 1.503zm45.228-36.001a2.2 2.2 0 01.897 1.502 2.486 2.486 0 01-.444 1.772l-5.575 7.854a2.54 2.54 0 01-.675.651 2.424 2.424 0 01-.853.352 2.202 2.202 0 01-1.716-.354 2.152 2.152 0 01-.6-.653 2.263 2.263 0 01-.297-.852 2.487 2.487 0 01.446-1.773l5.575-7.849c.37-.52.92-.881 1.527-1.003a2.2 2.2 0 011.715.353zM42.252 76.568a2.2 2.2 0 01.898 1.503 2.485 2.485 0 01-.445 1.772l-5.575 7.849c-.374.509-.92.858-1.522.973a2.2 2.2 0 01-1.695-.357 2.2 2.2 0 01-.895-1.482c-.09-.606.06-1.238.417-1.758l5.576-7.85c.37-.52.919-.88 1.527-1.003a2.2 2.2 0 011.714.353zm43.504 1.369c-.37.52-.919.88-1.527 1.003a2.201 2.201 0 01-1.714-.353l-7.39-5.249a2.204 2.204 0 01-.868-1.5 2.488 2.488 0 01.447-1.751 2.487 2.487 0 011.507-1 2.204 2.204 0 011.703.327l7.389 5.248c.49.348.813.889.898 1.503a2.486 2.486 0 01-.445 1.772zM37.718 43.819c-.37.52-.92.88-1.527 1.003a2.2 2.2 0 01-1.715-.353l-7.39-5.253a2.15 2.15 0 01-.617-.649 2.26 2.26 0 01-.31-.856 2.417 2.417 0 01.047-.932 2.536 2.536 0 011.078-1.518 2.42 2.42 0 01.864-.35c.305-.058.614-.055.91.01.297.066.574.191.816.37l7.39 5.249c.243.172.447.393.602.652.154.258.256.547.298.852a2.44 2.44 0 01-.052.923c-.077.304-.21.594-.395.852z" fill="#FCCF69"/></g><path d="M57.729 70.304c-3.648.732-7.349-.03-10.288-2.118-2.94-2.089-4.879-5.332-5.389-9.017-.51-3.685.45-7.51 2.668-10.633 2.218-3.123 5.514-5.29 9.161-6.02 3.648-.733 7.349.03 10.288 2.118 2.94 2.088 4.879 5.332 5.39 9.017.51 3.685-.45 7.51-2.669 10.633-2.218 3.123-5.514 5.288-9.161 6.02zm.641 4.632c4.864-.976 9.258-3.864 12.215-8.028 2.958-4.164 4.238-9.264 3.557-14.177-.68-4.913-3.264-9.238-7.184-12.023-3.92-2.784-8.855-3.8-13.718-2.824-4.864.975-9.257 3.863-12.215 8.027s-4.238 9.264-3.557 14.178c.68 4.913 3.264 9.237 7.184 12.022 3.92 2.784 8.855 3.8 13.718 2.825zm-7.695-55.578a2.2 2.2 0 011.715.353 2.2 2.2 0 01.898 1.503l1.282 9.263a2.486 2.486 0 01-.444 1.772c-.37.52-.92.881-1.527 1.003a2.201 2.201 0 01-1.715-.353 2.2 2.2 0 01-.898-1.503l-1.283-9.263a2.486 2.486 0 01.445-1.772c.37-.52.919-.881 1.527-1.003zm8.337 60.21a2.2 2.2 0 011.714.352c.49.348.813.889.898 1.503l1.283 9.263a2.485 2.485 0 01-.445 1.772 2.49 2.49 0 01-1.527 1.004 2.2 2.2 0 01-1.714-.353 2.2 2.2 0 01-.898-1.503l-1.283-9.263a2.486 2.486 0 01.445-1.772 2.49 2.49 0 011.526-1.004zM92.48 49.051a2.486 2.486 0 01-.445 1.772 2.49 2.49 0 01-1.527 1.004l-9.168 1.84a2.2 2.2 0 01-1.715-.354 2.2 2.2 0 01-.898-1.503 2.485 2.485 0 01.444-1.772c.37-.52.92-.881 1.527-1.003l9.169-1.84a2.2 2.2 0 011.715.353c.49.348.813.889.898 1.503zM32.883 61.008a2.486 2.486 0 01-.444 1.772c-.37.52-.92.882-1.527 1.004l-9.169 1.84a2.201 2.201 0 01-1.715-.354 2.2 2.2 0 01-.898-1.503 2.485 2.485 0 01.445-1.772c.37-.52.919-.881 1.527-1.003l9.168-1.84a2.2 2.2 0 011.715.353 2.2 2.2 0 01.898 1.503zm45.228-36.001a2.2 2.2 0 01.898 1.502 2.485 2.485 0 01-.445 1.772l-5.574 7.854a2.539 2.539 0 01-.675.651 2.423 2.423 0 01-.854.352 2.202 2.202 0 01-1.715-.355 2.152 2.152 0 01-.601-.652 2.263 2.263 0 01-.297-.852 2.487 2.487 0 01.446-1.773l5.576-7.85c.37-.52.919-.88 1.526-1.002a2.201 2.201 0 011.715.353zM41.862 76.039a2.2 2.2 0 01.898 1.502 2.486 2.486 0 01-.444 1.772l-5.576 7.85c-.374.508-.92.858-1.522.973a2.2 2.2 0 01-1.695-.357 2.2 2.2 0 01-.895-1.483c-.09-.606.06-1.237.418-1.758l5.575-7.849c.37-.52.92-.881 1.527-1.003a2.201 2.201 0 011.714.353zm43.504 1.368c-.37.52-.918.882-1.526 1.004a2.2 2.2 0 01-1.715-.353l-7.389-5.249a2.205 2.205 0 01-.869-1.5 2.487 2.487 0 01.448-1.752 2.487 2.487 0 011.507-1 2.204 2.204 0 011.702.327l7.389 5.249a2.2 2.2 0 01.898 1.502 2.485 2.485 0 01-.445 1.772zM37.328 43.29c-.37.52-.919.882-1.527 1.003a2.2 2.2 0 01-1.714-.352l-7.39-5.253a2.149 2.149 0 01-.618-.65 2.258 2.258 0 01-.31-.856 2.421 2.421 0 01.047-.93 2.537 2.537 0 011.078-1.519 2.42 2.42 0 01.864-.35c.305-.059.614-.055.91.01.297.065.575.191.817.37l7.389 5.248c.243.173.448.394.602.652.155.258.256.548.298.853.042.304.025.618-.052.922-.077.305-.21.595-.394.852z" fill="#FCCF69"/><defs><filter id="filter0_f_22_1594" x=".126" y=".47" width="112.138" height="112.939" filterUnits="userSpaceOnUse" color-interpolation-filters="sRGB"><feFlood flood-opacity="0" result="BackgroundImageFix"/><feBlend in="SourceGraphic" in2="BackgroundImageFix" result="shape"/><feGaussianBlur stdDeviation="9.686" result="effect1_foregroundBlur_22_1594"/></filter></defs></svg>