<svg width="375" height="88" fill="none" xmlns="http://www.w3.org/2000/svg"><path fill-rule="evenodd" clip-rule="evenodd" d="M0 42.954l6.875-5.63c6.875-5.631 20.938-16.893 34.688-24.4C55.624 5.415 69.374 1.661 83.436 7.292c13.75 5.63 27.813 20.646 41.563 30.03 13.75 9.385 27.812 13.139 41.562 5.631 14.063-7.508 27.813-26.277 41.876-35.661C222.188-2.092 236.25-2.092 250 5.416c13.75 7.507 27.812 22.523 41.562 24.4 14.063 1.877 27.813-9.385 41.876-5.631 13.75 3.754 27.812 22.523 34.687 31.907L375 65.477V88H0V42.954z" fill="#fff"/></svg>