<svg width="375" height="51" fill="none" xmlns="http://www.w3.org/2000/svg"><path fill-rule="evenodd" clip-rule="evenodd" d="M0 27.334l6.875-3.583c6.875-3.583 20.938-10.75 34.688-15.527 14.062-4.778 27.812-7.166 41.874-3.583C97.188 8.224 111.25 17.779 125 23.75c13.75 5.972 27.812 8.361 41.562 3.583 14.063-4.777 27.813-16.721 41.876-22.693C222.188-1.331 236.25-1.331 250 3.446c13.75 4.778 27.812 14.333 41.562 15.528 14.063 1.194 27.813-5.972 41.876-3.584 13.75 2.39 27.812 14.333 34.687 20.305L375 41.667V56H0V27.334z" fill="#fff"/></svg>