<svg width="1439" height="106" fill="none" xmlns="http://www.w3.org/2000/svg"><path fill-rule="evenodd" clip-rule="evenodd" d="M0 51.74l26.4-6.782c26.4-6.783 80.4-20.348 133.2-29.391 54-9.044 106.8-13.565 160.8-6.783 52.8 6.783 106.8 24.87 159.6 36.174 65 22.608 106.8 15.825 159.6 6.782 54-9.043 106.8-31.652 160.8-42.956C853.2-2.52 907.2-2.52 960 6.524c52.8 9.043 106.8 58.781 159.6 61.042 54 2.26 106.8-42.956 160.8-38.434 52.8 4.521 106.8 27.13 133.2 38.434L1440 78.87V106H0V51.74z" fill="#fff"/></svg>