<svg width="41" height="40" fill="none" xmlns="http://www.w3.org/2000/svg"><path d="M35.373 4.637c-5.057 3.81-9.383 7.488-13.509 12.444-1.82 2.185-3.858 4.769-5.275 7.26-.798 1.317-2.2 3.358-2.819 5.397-1.968-2.426-4.07-5.165-6.28-7.37-1.577-1.57-6.829.752-4.98 2.594 3.312 3.3 5.94 7.253 9.14 10.673 1.339 1.43 4.888-1.002 5.775-2.085 2.913-3.569 3.744-8.215 6.011-12.202C26.9 15.25 32.41 10.518 37.784 6.47c3.585-2.917.294-3.866-2.406-1.831" fill="#F25E5E"/><g filter="url(#filter0_f_22_1900)"><path d="M33.413 8.338c-4.473 3.37-8.3 6.622-11.948 11.005-1.61 1.934-3.413 4.218-4.666 6.423-.706 1.164-1.947 2.97-2.493 4.772-1.741-2.145-3.6-4.568-5.555-6.517-1.394-1.39-6.04.664-4.405 2.293 2.93 2.918 5.255 6.416 8.085 9.44 1.184 1.264 4.322-.887 5.107-1.844 2.577-3.156 3.312-7.266 5.317-10.792 3.063-5.394 7.936-9.58 12.69-13.16 3.171-2.58.26-3.42-2.128-1.62" fill="#F25E5E"/></g><defs><filter id="filter0_f_22_1900" x=".208" y="3.585" width="40.523" height="36.351" filterUnits="userSpaceOnUse" color-interpolation-filters="sRGB"><feFlood flood-opacity="0" result="BackgroundImageFix"/><feBlend in="SourceGraphic" in2="BackgroundImageFix" result="shape"/><feGaussianBlur stdDeviation="1.897" result="effect1_foregroundBlur_22_1900"/></filter></defs></svg>