<svg width="45" height="47" fill="none" xmlns="http://www.w3.org/2000/svg"><path d="M4.706 46.013c-1.294 0-2.402-.501-3.325-1.503C.46 43.508-.002 42.305 0 40.902V5.124c0-1.406.461-2.61 1.384-3.611C2.306.51 3.414.01 4.706.013h32.941c.314 0 .608.032.882.097.275.065.55.16.824.286L35 5.124H4.706v35.778h32.941V23.907l4.706-5.111v22.106c0 1.405-.461 2.609-1.384 3.61-.922 1.002-2.03 1.502-3.322 1.5H4.706zM20.059 35.79L6.765 21.35l3.294-3.577 10 10.86L41.647 5.189 45 8.702 20.059 35.79z" fill="url(#paint0_linear_22_2307)"/><defs><linearGradient id="paint0_linear_22_2307" x1="22.5" y1=".013" x2="22.5" y2="46.013" gradientUnits="userSpaceOnUse"><stop stop-color="#F7ED7E"/><stop offset="1" stop-color="#E5AF4F"/></linearGradient></defs></svg>