<svg width="354" height="309" fill="none" xmlns="http://www.w3.org/2000/svg"><path d="M282.028 154.382c0 54.169-50.958 98.354-114.181 98.354S53.666 208.551 53.666 154.382c0-54.168 50.958-98.354 114.181-98.354s114.181 44.186 114.181 98.354z" stroke="#F3C164" stroke-width="2.261"/><path d="M295.593 150.991c0 52.244-51.909 94.962-116.442 94.962-64.533 0-116.442-42.718-116.442-94.962s51.909-94.963 116.442-94.963c64.533 0 116.442 42.719 116.442 94.963z" stroke="#FCCF69" stroke-width="2.261"/><g filter="url(#filter0_f_22_2265)"><path d="M176.891 259.519c69.885 0 127.748-46.467 127.748-105.137S246.776 49.245 176.891 49.245 49.144 95.712 49.144 154.382s57.862 105.137 127.747 105.137z" stroke="#FCCF69" stroke-width="6.783"/></g><defs><filter id="filter0_f_22_2265" x=".532" y=".633" width="352.718" height="307.498" filterUnits="userSpaceOnUse" color-interpolation-filters="sRGB"><feFlood flood-opacity="0" result="BackgroundImageFix"/><feBlend in="SourceGraphic" in2="BackgroundImageFix" result="shape"/><feGaussianBlur stdDeviation="22.61" result="effect1_foregroundBlur_22_2265"/></filter></defs></svg>