<svg width="50" height="50" fill="none" xmlns="http://www.w3.org/2000/svg"><path d="M5.229 50c-1.438 0-2.67-.544-3.694-1.633C.51 47.277-.002 45.97 0 44.444V5.556C0 4.028.512 2.719 1.537 1.63 2.562.54 3.793-.002 5.23 0h36.6c.349 0 .675.035.98.106.305.07.61.174.915.31l-4.836 5.14H5.229v38.888H41.83V25.972l5.229-5.555v24.027c0 1.528-.513 2.837-1.537 3.925-1.025 1.09-2.256 1.633-3.692 1.631H5.23zm17.059-11.111L7.516 23.194l3.66-3.888L22.288 31.11 46.275 5.625 50 9.445 22.288 38.888z" fill="url(#paint0_linear_22_2095)"/><defs><linearGradient id="paint0_linear_22_2095" x1="25" y1="0" x2="25" y2="50" gradientUnits="userSpaceOnUse"><stop stop-color="#F7ED7E"/><stop offset="1" stop-color="#E5AF4F"/></linearGradient></defs></svg>