<svg width="35" height="27" fill="none" xmlns="http://www.w3.org/2000/svg"><g filter="url(#filter0_d_1_705)"><path fill-rule="evenodd" clip-rule="evenodd" d="M23.434 14.291l-2.623 9.466 5.904-.102 3.646-8.18v-.001c.977-2.206 1.492-3.604 1.765-4.656.264-1.02.307-1.739.297-2.61-.025-2.011-.746-3.577-1.877-4.636-1.138-1.065-2.767-1.688-4.718-1.654-1.952.034-3.565.713-4.677 1.818-1.106 1.097-1.789 2.687-1.765 4.699.033 2.725 1.29 4.577 3.19 5.458l.858.398zm7.934 1.643l-3.938 8.834-8.085.14 2.768-9.99c-2.323-1.078-3.795-3.347-3.832-6.464-.055-4.588 3.144-7.585 7.533-7.661 4.39-.076 7.659 2.808 7.714 7.396.022 1.883-.192 3.298-2.16 7.745zM6.685 14.582l-2.623 9.466 5.904-.103 3.646-8.18c.977-2.206 1.493-3.604 1.765-4.657.265-1.02.308-1.738.297-2.609-.024-2.012-.745-3.577-1.876-4.636C12.66 2.798 11.03 2.175 9.079 2.21c-1.951.034-3.565.713-4.677 1.817-1.105 1.098-1.788 2.688-1.764 4.7.032 2.724 1.289 4.577 3.189 5.458l.858.398zm7.934 1.642l-3.937 8.835-8.086.14 2.769-9.99C3.04 14.13 1.57 11.862 1.533 8.745 1.478 4.157 4.677 1.16 9.066 1.084c4.389-.077 7.658 2.808 7.713 7.396.023 1.882-.191 3.298-2.16 7.744z" fill="#BFADA3"/></g><defs><filter id="filter0_d_1_705" x=".908" y=".792" width="33.245" height="25.655" filterUnits="userSpaceOnUse" color-interpolation-filters="sRGB"><feFlood flood-opacity="0" result="BackgroundImageFix"/><feColorMatrix in="SourceAlpha" values="0 0 0 0 0 0 0 0 0 0 0 0 0 0 0 0 0 0 127 0" result="hardAlpha"/><feOffset dy=".624"/><feGaussianBlur stdDeviation=".312"/><feColorMatrix values="0 0 0 0 0 0 0 0 0 0 0 0 0 0 0 0 0 0 0.25 0"/><feBlend in2="BackgroundImageFix" result="effect1_dropShadow_1_705"/><feBlend in="SourceGraphic" in2="effect1_dropShadow_1_705" result="shape"/></filter></defs></svg>