<svg width="120" height="120" fill="none" xmlns="http://www.w3.org/2000/svg"><ellipse cx="60.176" cy="58.935" rx="28.979" ry="29.043" fill="#F25E5E"/><path d="M104.342 67.72l3.062.44.075-.024c.176-1.064.31-1.915.401-2.553.256-1.787.355-2.684.297-2.692l-3.01-.433c-.72-.104-1.266-.135-1.638-.094-.085.012-.189.163-.314.453-.114.303-.18.512-.196.628-.005.035-.077.042-.217.022a.729.729 0 01-.293-.06 77.39 77.39 0 00.379-2.023c.008-.058.079-.758.212-2.1.053-.04.143-.05.27-.032.163.023.241.058.234.104a3.17 3.17 0 00.007.694c.027.311.084.491.172.54.301.126.812.24 1.531.344l6.751.97c.707.102 1.229.136 1.566.101.086-.023.185-.18.298-.472.124-.29.197-.51.219-.66.007-.047.091-.059.254-.035.15.021.234.057.251.107a14.47 14.47 0 01-.197 1.002c-.086.437-.15.795-.189 1.073-.042.29-.083.658-.123 1.102-.028.445-.055.761-.082.947-.05.016-.149.008-.298-.025-.139-.02-.206-.048-.201-.082.016-.117.006-.337-.03-.662-.027-.311-.079-.485-.157-.52-.357-.146-.89-.27-1.598-.372l-2.61-.375-.054.01c-.186 1.134-.325 2.02-.416 2.657-.095.662-.205 1.516-.332 2.563.02.027.042.042.065.045l2.662.383c.696.1 1.217.14 1.563.118.087-.023.186-.18.299-.472.124-.29.197-.51.219-.661.007-.046.085-.059.236-.037.151.022.24.058.268.11a13.66 13.66 0 01-.196 1.001c-.087.438-.15.802-.192 1.091-.042.29-.081.652-.12 1.084-.026.435-.053.745-.079.93a.604.604 0 01-.249 0c-.174-.025-.258-.06-.251-.107.017-.116.007-.337-.03-.662-.026-.311-.078-.484-.156-.52-.358-.145-.891-.27-1.598-.371l-6.612-.951c-.719-.103-1.265-.135-1.638-.094-.085.012-.189.163-.313.453-.115.303-.18.513-.197.629-.007.046-.097.057-.271.032a.785.785 0 01-.239-.07 74.36 74.36 0 00.374-1.989c.01-.07.081-.775.214-2.118.053-.04.15-.05.289-.03.151.022.223.056.216.103a3.17 3.17 0 00.007.693c.027.312.084.492.172.54.314.116.826.225 1.533.327zm5.428 14.026l-9.894-.716a29.913 29.913 0 00-1.362-.07c-.188-.01-.398.093-.627.31-.218.221-.357.396-.416.523-.02.043-.13.017-.333-.076a.575.575 0 01-.144-.106c.544-1.04.841-1.612.89-1.719l.776-1.888c.062-.022.157-.004.285.055.133.075.19.133.17.176-.059.128-.106.3-.141.516-.036.216-.018.36.052.431.075.06.156.11.24.15.139.065.308.117.508.159a4.3 4.3 0 00.491.111l.205.017 2.104.183c.057-.013.093-.035.108-.067.224-.4.426-.797.608-1.19a34.45 34.45 0 00.857-2.064l-.011-.102-1.437-1.5c-.448-.427-.773-.688-.975-.782-.149-.069-.275-.076-.378-.02-.118.061-.253.186-.405.374a2.898 2.898 0 00-.277.433c-.015.032-.086.018-.214-.04a.74.74 0 01-.264-.143c.545-1.039.825-1.574.84-1.606a9.73 9.73 0 00.242-.566c.063-.165.136-.35.219-.557l.226-.574c.062-.022.151-.007.268.047.149.07.214.125.194.168a2.279 2.279 0 00-.149.531c-.04.227-.029.4.032.519.184.357.568.838 1.152 1.446l5.844 6.084c.044.046.116.112.219.198.097.097.167.168.21.214.054.051.114.118.179.2.076.087.128.156.156.207.028.052.058.112.092.179a.535.535 0 01.038.211.724.724 0 01-.064.222l-.114.122zm-4.901-4.523c-.277.544-.462.916-.555 1.118-.217.469-.424.96-.624 1.475l.058.085 4.121.343-2.921-3.023c-.043-.02-.069-.019-.079.002zm-8.242 15.541c-.056.06-.051.122.017.187l1.966 1.886c.516.495.92.826 1.214.994.083.031.255-.039.517-.21.269-.164.453-.297.55-.398.032-.034.108.006.226.12.11.105.157.182.142.233a13.5 13.5 0 01-.731.688c-.324.305-.583.56-.778.763a21.76 21.76 0 00-.74.826 13.96 13.96 0 01-.617.722c-.05-.015-.126-.08-.228-.194-.101-.097-.14-.159-.115-.184.08-.085.197-.266.348-.543.16-.269.218-.44.175-.514-.198-.336-.555-.751-1.07-1.246l-1.916-1.838c-.067-.064-.13-.067-.186-.008l-.085.089c-.016.017-.049.05-.097.102a1.1 1.1 0 01-.097.126c-.17.195-.286.367-.349.518-.063.15-.097.272-.104.363l.012.548c.004.182.038.385.1.607.072.231.147.433.225.605.07.181.188.465.354.851.174.395.318.728.431 1 .5 1.241.41 2.235-.27 2.98-.202.212-.415.332-.638.362a.585.585 0 01-.537-.15c-.102-.097-.138-.238-.109-.421a.957.957 0 01.25-.466l.268-.279c.26-.272.368-.614.325-1.028-.041-.398-.238-1.065-.59-2.004-.229-.625-.365-1.178-.408-1.658-.044-.48-.04-.842.013-1.084l-.038-.036c-1.129.639-2.109.86-2.941.662a80.826 80.826 0 01-1.2-.348c-.683-.2-1.262-.35-1.736-.447a3.501 3.501 0 00-.834-.07c-.24.014-.474.082-.703.203a10.6 10.6 0 00-.466.284l-.524.447c-.032.034-.104-.002-.214-.108a.967.967 0 01-.203-.244c.048-.05.21-.204.486-.459.26-.254.458-.454.596-.598.777-.813 1.698-1.107 2.762-.881.208.037.657.143 1.349.319.683.184 1.186.318 1.511.403.65.201 1.165.264 1.544.19.38-.058.744-.253 1.093-.584a3.2 3.2 0 00.304-.293c.056-.06.05-.121-.017-.186l-2.181-2.094c-.533-.51-.963-.85-1.29-1.017-.075-.04-.247.022-.517.186-.261.171-.432.3-.513.384-.024.026-.087-.01-.189-.108a.727.727 0 01-.203-.22 72.604 72.604 0 001.484-1.426c.032-.034.493-.558 1.381-1.573.067-.001.146.042.24.132.118.113.16.187.128.22a3.142 3.142 0 00-.385.557c-.16.269-.218.449-.175.539.172.278.52.669 1.044 1.172l2.233 2.142c.067.065.13.068.186.008a3.17 3.17 0 00.279-.317c.315-.364.497-.741.546-1.132.05-.374-.04-.883-.269-1.525a341.1 341.1 0 01-.455-1.509 20.676 20.676 0 01-.389-1.323c-.271-1.056-.019-1.99.759-2.804.137-.144.331-.356.582-.635.234-.28.375-.444.424-.495a.963.963 0 01.252.194c.11.105.149.175.117.209-.443.565-.703 1.007-.779 1.323-.1.36-.09.774.027 1.245.118.47.292 1.043.522 1.718.23.676.363 1.071.399 1.186.233.825.056 1.816-.532 2.974l.038.037c.24-.064.599-.084 1.08-.061.48.023 1.037.135 1.671.337.951.31 1.629.475 2.035.49.406.033.739-.086.998-.357l.267-.28a.955.955 0 01.454-.271c.181-.037.323-.007.424.09a.59.59 0 01.173.532c-.02.224-.131.442-.333.654-.713.712-1.7.846-2.96.4a59.489 59.489 0 01-1.014-.388 47.52 47.52 0 01-.852-.33 9.371 9.371 0 00-.625-.186 2.443 2.443 0 00-.61-.073l-.546.012c-.091.01-.21.05-.358.12a1.995 1.995 0 00-.5.371 1.05 1.05 0 01-.123.102l-.097.102-.085.09z" fill="#BFADA3"/><path d="M89.142 106.369l-1.424.771c-.222-.244-.711-.716-1.468-1.416-.75-.69-1.707-1.561-2.868-2.612a182.607 182.607 0 01-2.611-2.365c-.021-.016-.052-.013-.095.007-.042.021-.058.055-.048.102l.449 7.172.288 2.205c-.137.067-.369.167-.695.3-.321.143-.54.243-.656.299-.358.175-.94.478-1.747.91a.541.541 0 01-.154-.199c-.077-.158-.089-.25-.036-.275l.047-.023a1.74 1.74 0 00.412-.318c.16-.156.268-.294.327-.414.07-.151-.046-.538-.347-1.16-.297-.612-1.374-2.727-3.232-6.345-.302-.596-.616-1.042-.943-1.339-.088-.075-.287-.082-.597-.023-.304.071-.514.134-.63.19-.043.021-.1-.043-.17-.19a.853.853 0 01-.084-.253 65.89 65.89 0 001.919-.837c.042-.02.656-.352 1.842-.995.063.022.125.096.186.223.066.137.079.216.036.236-.105.051-.25.155-.435.31-.196.161-.329.29-.398.389-.08.13-.028.385.156.765l.407.838 2.873 5.483c.092.164.218.344.378.539.155.212.258.305.311.279.021-.01.027-.065.018-.165l-.524-9.501c-.02-.551.066-.873.255-.965a.557.557 0 01.158-.038l8.09 7.42c-.48-1.017-1.016-2.19-1.608-3.518a848.404 848.404 0 01-2.035-4.6c-.092-.19-.19-.312-.294-.366-.104-.053-.335-.045-.692.024-.352.08-.585.148-.701.205-.043.02-.102-.048-.179-.207a.78.78 0 01-.075-.236 71.676 71.676 0 001.871-.814c.021-.01.625-.337 1.811-.98.078.028.143.094.194.2.072.147.081.234.028.26a3.632 3.632 0 00-.602.41c-.259.217-.408.394-.446.53-.092.266.03.774.367 1.522l1.509 3.274c.484 1.08.862 1.926 1.132 2.537a53.1 53.1 0 00.536 1.186c.128.264.251.464.37.602.067.058.28.04.637-.056.362-.085.618-.164.765-.236.042-.02.102.049.178.207.062.126.076.21.044.252-.2.098-.484.223-.853.376a17.83 17.83 0 00-.947.423z" fill="#BFADA3"/><path d="M70.147 102.143c-.02-.139-.02-.222 0-.249a58.18 58.18 0 001.212-.098c.278-.039.584-.094.918-.164.321-.069.575-.116.76-.142.03.043.053.123.07.239.024.174.013.264-.034.271-.116.016-.32.08-.612.192-.302.125-.46.23-.471.314-.041.385-.012.931.086 1.639l.922 6.616c.1.719.221 1.253.364 1.599.035.078.214.13.537.156.313.039.527.051.643.034.047-.006.082.078.106.252a.774.774 0 010 .248 78.161 78.161 0 00-2.05.198c-.057.008-.75.135-2.076.379-.053-.04-.089-.123-.106-.251-.023-.162-.011-.247.035-.253.163-.023.39-.09.682-.202.28-.111.432-.215.454-.312.037-.325.006-.847-.094-1.567l-.868-6.233a15.479 15.479 0 01-.105-1.263l-3.788 9.76c-.08.188-.121.36-.123.514l.012.087c.022.162.023.251.001.266a47.42 47.42 0 00-1.246.103c-.278.039-.578.093-.9.162-.333.07-.593.118-.779.144a.604.604 0 01-.068-.239c-.024-.174-.013-.264.033-.271.116-.016.325-.087.627-.212.292-.112.444-.21.456-.294.041-.385.012-.931-.086-1.639l-.922-6.616c-.1-.719-.221-1.253-.364-1.599-.035-.078-.209-.137-.522-.176-.323-.026-.542-.031-.658-.014-.047.006-.082-.078-.106-.252a.774.774 0 010-.248 78.18 78.18 0 002.05-.198c.058-.008.75-.135 2.076-.379.053.039.089.123.106.251.023.162.011.247-.035.253-.163.023-.384.09-.665.2-.292.112-.449.217-.47.314-.038.325-.007.847.093 1.567l.868 6.233c.028.197.054.471.08.823.013.353.026.57.037.651l.017-.002 3.84-9.891c.081-.189.102-.423.063-.701zm-17.275.643c.036-.135.07-.212.098-.228.712.242 1.096.37 1.152.386.272.073.574.143.908.21.323.063.575.12.756.169a.6.6 0 01-.03.246c-.046.17-.092.249-.137.237-.113-.031-.326-.052-.638-.064-.327-.004-.513.03-.556.103-.189.338-.376.852-.563 1.542l-1.744 6.448c-.19.701-.286 1.24-.29 1.615 0 .085.145.203.432.354.272.159.465.254.578.285.046.012.045.103 0 .273a.785.785 0 01-.099.228 70.72 70.72 0 00-1.962-.624c-.056-.015-.742-.171-2.058-.468-.033-.057-.033-.148 0-.273.044-.158.088-.231.133-.219.158.043.394.07.706.082.301.009.48-.027.54-.108.16-.284.337-.777.526-1.478l1.643-6.075c.08-.294.212-.695.398-1.203l-7.305 7.487a1.379 1.379 0 00-.315.425l-.023.085c-.043.158-.077.24-.103.245a49.015 49.015 0 00-1.186-.395 13.07 13.07 0 00-.891-.206 12.11 12.11 0 01-.773-.173.604.604 0 01.03-.247c.046-.169.092-.248.137-.236.113.031.333.048.66.052.312.012.49-.019.535-.092.188-.337.375-.851.562-1.541l1.743-6.448c.19-.701.287-1.24.292-1.615-.002-.085-.139-.208-.411-.367-.287-.15-.487-.241-.6-.272-.046-.012-.045-.103 0-.273a.788.788 0 01.099-.228 75.08 75.08 0 001.962.624c.056.015.742.171 2.058.468.033.057.033.148 0 .273-.044.158-.088.231-.133.219a3.156 3.156 0 00-.689-.078c-.312-.012-.498.023-.556.104-.162.284-.338.776-.527 1.478l-1.643 6.075c-.052.192-.135.455-.25.788a9.67 9.67 0 00-.22.614l.017.005 7.405-7.588c.148-.142.258-.349.332-.621zM35.142 95.8c-.316-.244-.74-.259-1.271-.047-.548.215-.904.429-1.068.643-.15.195-.27.517-.361.964a136.67 136.67 0 00-.7 3.342c-.36 1.763-.58 2.88-.66 3.35a5.64 5.64 0 00-.104.83c-.002.176.032.372.103.589.07.158.183.348.338.57.138.225.249.369.332.433.037.029.017.094-.062.197-.092.121-.164.176-.215.166-.196-.15-.45-.367-.763-.652a19.422 19.422 0 00-1.881-1.447 18.99 18.99 0 01-.826-.569c.01-.051.058-.125.146-.22.078-.102.132-.143.16-.121.148.114.357.208.625.281.26.067.446.025.56-.124.071-.093.131-.268.181-.526l1.248-6.025c.012-.093-.041-.12-.16-.08-1.885 1.036-3.38 1.919-4.486 2.65-.569.376-.902.629-1.002.759-.079.103-.055.284.071.543.117.253.31.482.58.689.027.022.002.084-.076.186-.086.112-.153.171-.202.177-.13-.1-.398-.328-.804-.684a30.74 30.74 0 00-.927-.757c-.269-.207-.54-.401-.815-.583a7.52 7.52 0 01-.632-.419c-.006-.049.03-.125.108-.227.086-.112.152-.15.198-.114.102.079.342.19.72.332.362.145.631.197.81.157.19-.076.681-.312 1.472-.709.454-.227 1.584-.844 3.388-1.852 1.788-1.005 2.948-1.643 3.48-1.914 1.605-.805 2.831-.912 3.677-.321.442.31.733.652.874 1.027-.009.185-.102.394-.28.627a.89.89 0 01-.46.311.569.569 0 01-.54-.104c-.167-.129-.297-.354-.39-.677-.109-.32-.237-.537-.386-.652zm-9.104-8.768c-.067-.335-.24-.682-.521-1.043a2.654 2.654 0 00-.629-.58 2.968 2.968 0 00-.853-.382c-.323-.09-.686-.08-1.092.028-.422.106-.84.321-1.256.646-.6.469-.95 1.002-1.05 1.6-.109.605-.011 1.198.292 1.779.114.223.383.608.807 1.153-.03.114-.152.216-.363.306-.088.04-.144.053-.168.042-.534-.802-1.14-1.303-1.815-1.504-.685-.194-1.327-.057-1.928.412-.536.418-.852.918-.95 1.5-.113.579-.026 1.053.261 1.424.295.379.633.65 1.013.815.38.164.755.228 1.127.19.372-.037.679-.09.921-.161.242-.07.477-.15.705-.238a.526.526 0 00.08-.04.337.337 0 01.235.129c.057.074.094.15.109.227.006.084-.022.143-.085.177l-2.174 1.385a32.14 32.14 0 00-.88-.674 8.544 8.544 0 01-.855-.67 6.701 6.701 0 01-.713-.803c-.64-.824-.94-1.63-.9-2.42.023-.79.353-1.435.99-1.933.657-.512 1.35-.66 2.083-.443.602.184 1.111.418 1.526.704l.042-.033c-.436-.79-.629-1.553-.579-2.29.041-.731.422-1.378 1.142-1.94.61-.476 1.272-.703 1.987-.681a3.94 3.94 0 011.956.569c.58.365 1.09.83 1.528 1.394.41.527.67 1.015.782 1.463.255 1.035.215 1.929-.12 2.681-.043.137-.204.226-.484.266-.57.088-.894-.09-.972-.534-.02-.103.006-.221.081-.354.075-.133.173-.284.294-.452a2.34 2.34 0 00.253-.42c.206-.384.264-.816.173-1.295z" fill="#BFADA3"/><path d="M17.983 76.569l-2.853 1.197-.051.06c.393 1.003.715 1.803.963 2.397.695 1.666 1.07 2.487 1.124 2.464l2.805-1.176c.67-.281 1.154-.535 1.453-.762.067-.054.079-.237.037-.55-.057-.319-.108-.532-.153-.64-.014-.033.044-.076.174-.13a.724.724 0 01.282-.1c.398 1.104.635 1.748.712 1.932.022.054.32.691.894 1.912-.025.061-.097.117-.216.167-.151.063-.236.073-.254.03a3.149 3.149 0 00-.362-.592c-.182-.254-.323-.379-.423-.375-.323.047-.82.21-1.49.492l-6.29 2.638c-.659.277-1.124.516-1.395.719-.062.064-.067.25-.014.559.042.313.092.54.15.68.019.043-.048.096-.2.16-.14.059-.23.071-.27.037a14.01 14.01 0 01-.344-.961c-.15-.42-.279-.76-.387-1.02-.113-.27-.266-.606-.46-1.008a13.856 13.856 0 01-.414-.855c.034-.04.124-.084.269-.132.13-.054.201-.065.215-.033.045.108.166.292.364.553.182.254.316.376.4.365.382-.058.903-.226 1.562-.502l2.431-1.02.042-.037a141.11 141.11 0 00-1.004-2.495c-.257-.617-.6-1.407-1.028-2.37a.097.097 0 00-.079-.006l-2.48 1.04c-.648.272-1.115.506-1.402.703-.062.064-.066.25-.014.559.042.312.092.54.15.68.019.043-.042.094-.183.153-.14.059-.236.073-.286.044a14.02 14.02 0 01-.345-.961 21.79 21.79 0 00-.394-1.036c-.113-.27-.264-.6-.452-.992a12.41 12.41 0 01-.408-.84.603.603 0 01.213-.127c.163-.068.253-.08.27-.037.046.108.167.293.365.553.182.254.316.376.4.365.382-.058.903-.226 1.562-.502l6.16-2.584c.67-.281 1.154-.535 1.453-.762.067-.053.079-.237.037-.55-.057-.319-.108-.532-.153-.64-.018-.044.054-.1.216-.167a.778.778 0 01.24-.063 76.94 76.94 0 00.698 1.9c.027.064.328.707.901 1.928-.025.061-.103.12-.232.173-.14.06-.22.067-.238.024a3.149 3.149 0 00-.361-.592c-.183-.254-.324-.379-.424-.375-.33.062-.824.231-1.483.508zM6.157 67.288l8.867-4.463c.526-.267.928-.48 1.206-.639.167-.088.294-.284.38-.587.075-.303.105-.524.09-.664-.005-.046.104-.081.325-.105a.578.578 0 01.178.017c.064 1.172.101 1.816.113 1.932l.3 2.02c-.043.05-.133.084-.273.099-.153.004-.232-.017-.237-.064a2.04 2.04 0 00-.142-.515c-.08-.204-.168-.319-.265-.344a1.156 1.156 0 00-.284-.005 2.337 2.337 0 00-.517.124 4.21 4.21 0 00-.478.157l-.185.09-1.901.923c-.043.04-.063.078-.06.113.013.458.042.903.087 1.334.063.606.17 1.343.319 2.211l.061.082 2.002.55c.603.138 1.016.195 1.237.171.163-.017.275-.076.335-.176.07-.114.123-.29.157-.53a2.97 2.97 0 00.017-.514c-.004-.034.065-.06.204-.074a.726.726 0 01.3-.013c.063 1.171.096 1.774.1 1.81.024.233.051.436.081.61.03.173.062.37.097.59l.099.609c-.042.051-.127.084-.255.097-.163.017-.247.002-.252-.044a2.244 2.244 0 00-.144-.533c-.082-.216-.179-.359-.292-.43-.34-.211-.917-.427-1.73-.649l-8.131-2.224a2.877 2.877 0 00-.289-.058c-.133-.033-.23-.058-.29-.075a1.937 1.937 0 01-.256-.08 1.257 1.257 0 01-.24-.098 6.596 6.596 0 01-.17-.106.535.535 0 01-.141-.162.718.718 0 01-.059-.224l.036-.163zm6.523 1.368a39.156 39.156 0 00-.095-1.245 25.122 25.122 0 00-.218-1.586l-.093-.043-3.716 1.82 4.056 1.096c.046-.005.068-.02.066-.042zm4.37-12.086c.138.027.216.053.235.08-.183.73-.28 1.122-.291 1.18a13.19 13.19 0 00-.136.922c-.037.327-.073.583-.107.767a.605.605 0 01-.249-.01c-.173-.033-.255-.072-.246-.118.021-.115.026-.33.012-.642-.023-.326-.072-.508-.148-.546-.352-.161-.879-.308-1.581-.44l-6.566-1.228c-.714-.134-1.258-.188-1.633-.163-.085.008-.19.161-.318.46-.136.284-.215.484-.237.599-.008.046-.099.053-.272.02a.777.777 0 01-.235-.08c.272-1.14.427-1.81.463-2.005.01-.058.11-.754.3-2.09.055-.037.146-.044.272-.02.162.03.238.068.23.114-.03.161-.04.398-.026.71.016.301.066.478.152.53.296.139.8.275 1.515.408l6.186 1.158c.3.056.71.157 1.23.302l-8.05-6.693a1.38 1.38 0 00-.448-.28l-.087-.017c-.16-.03-.245-.058-.252-.083a47.3 47.3 0 00.297-1.214c.052-.276.096-.578.133-.905.04-.338.076-.6.11-.784a.603.603 0 01.249.01c.173.033.255.072.246.118-.021.116-.02.336.002.662.013.313.058.488.135.526.351.162.878.308 1.58.44l6.566 1.228c.714.134 1.259.188 1.633.163.085-.008.196-.154.332-.439.127-.298.201-.504.223-.62.008-.046.1-.053.272-.02.092.017.17.044.235.08a72.538 72.538 0 00-.463 2.005c-.01.058-.11.755-.3 2.09-.055.038-.145.044-.272.02-.161-.03-.238-.068-.229-.114a3.16 3.16 0 00.022-.693c-.013-.313-.063-.495-.149-.546-.296-.14-.8-.276-1.515-.41l-6.185-1.157a13.183 13.183 0 01-.806-.187 9.698 9.698 0 00-.63-.171l-.003.017 8.159 6.785c.153.136.368.23.645.282zM5.548 51.7l-.003.017c-.122.656-.347 1.157-.673 1.501-.336.33-.711.457-1.126.38a.816.816 0 01-.469-.267.6.6 0 01-.137-.509c.038-.207.147-.342.325-.404a.784.784 0 01.527-.044c.472.088.767-.178.882-.8.058-.312.038-.554-.06-.727a.61.61 0 00-.48-.305.816.816 0 01-.493-.235.586.586 0 01-.134-.526.585.585 0 01.294-.428.77.77 0 01.533-.079c.426.08.734.346.924.8.18.438.21.98.09 1.626zm8.322-20.109l2.83-4.218c.065-.013.161.023.288.108.126.084.177.146.15.185-.077.117-.173.335-.287.654-.107.309-.136.5-.088.576.227.25.624.565 1.188.943l5.581 3.734c.614.41 1.075.67 1.383.777.098.023.26-.073.488-.287.227-.215.383-.385.467-.512.026-.04.107-.013.244.078.107.072.167.14.18.205a237.132 237.132 0 00-1.242 1.707c-.111.166-.467.753-1.068 1.76a.78.78 0 01-.224-.107c-.146-.098-.206-.166-.18-.205.072-.107.163-.307.273-.6.1-.3.124-.482.068-.547-.25-.28-.677-.622-1.28-1.026l-5.508-3.685c-.623-.417-1.046-.671-1.266-.762-.15-.072-.61.472-1.384 1.633-.793 1.19-1.127 1.84-1.004 1.95.211.212.604.51 1.179.895l5.507 3.685c.575.385 1.06.639 1.457.763.08.026.24-.065.477-.273.227-.214.373-.37.438-.468.026-.039.112-.01.259.088.077.052.14.108.184.166a72.199 72.199 0 00-1.213 1.663c-.026.04-.388.636-1.086 1.79-.065.013-.151-.017-.259-.088-.136-.092-.191-.157-.165-.196.084-.126.179-.331.283-.614.11-.293.136-.48.078-.561-.185-.209-.604-.531-1.257-.968l-5.58-3.734c-.604-.404-1.043-.655-1.316-.753-.087-.016-.253.085-.496.302-.244.218-.405.385-.483.502-.032.05-.112.031-.238-.054-.117-.078-.184-.157-.2-.239a2057.3 2057.3 0 012.821-4.267zm10.503-11.644c-.854.714-1.218 1.651-1.091 2.812.127 1.161.598 2.233 1.415 3.215a7.65 7.65 0 002.047 1.749 5 5 0 002.43.696 3.375 3.375 0 002.27-.818 2.944 2.944 0 001.05-1.816 4.319 4.319 0 00-.213-2.18 6.626 6.626 0 00-1.173-2.044 7.504 7.504 0 00-2.036-1.735 4.87 4.87 0 00-2.419-.683 3.332 3.332 0 00-2.28.804zm3.175 9.623c-1.578-.194-2.891-.921-3.94-2.183-1.049-1.262-1.526-2.688-1.43-4.279.096-1.607.738-2.906 1.926-3.897 1.187-.992 2.578-1.39 4.173-1.194 1.587.186 2.905.91 3.954 2.172 1.048 1.261 1.52 2.691 1.417 4.29-.104 1.598-.75 2.892-1.938 3.884-1.187.99-2.575 1.393-4.162 1.207zm14.71-9.436l-3.735-8.669c-.055-.129-.114-.206-.175-.23-.051-.029-.141-.016-.27.04l-2.694 1.166c-.086.037-.132.095-.136.174.002.063.051.207.149.433 1.442 3.347 2.24 6.252 2.394 8.713.004.216.038.354.103.416.075.056.215.04.42-.048l3.678-1.592.226-.098a.171.171 0 00.069-.106.317.317 0 00-.029-.198zm-6.39 3.206l.614-.265a.717.717 0 00.294-.204c.057-.076.088-.198.092-.366.068-1.114-.096-2.473-.493-4.076a30.859 30.859 0 00-1.611-4.762 5.186 5.186 0 00-.41-.684c-.065-.062-.259-.067-.582-.017-.322.05-.548.103-.678.16-.043.018-.094-.043-.154-.183s-.079-.24-.054-.302c.398-.172 1-.42 1.804-.743a81.301 81.301 0 001.821-.75 109.1 109.1 0 002.083-.94c.927-.426 1.621-.739 2.084-.939.061.024.122.107.183.247.06.14.069.219.026.237-.13.056-.323.185-.581.386-.258.2-.387.346-.387.435.027.18.183.662.47 1.444l2.698 6.264c.357.829.622 1.295.794 1.4.122.074.532-.04 1.231-.342l.275-.119c.063-.002.11.061.139.19.048.26.122.578.22.957.105.39.227.821.368 1.297.146.486.24.809.284.969a.929.929 0 01-.394.285.517.517 0 01-.192.044c-.058.013-.089 0-.092-.036a3.947 3.947 0 00-.545-1.22c-.25-.403-.47-.69-.659-.864-.264-.256-.75-.23-1.46.076l-4.388 1.9c-.742.32-1.148.681-1.218 1.082-.04.26-.044.638-.009 1.134a4.6 4.6 0 00.294 1.348c.027.064-.029.127-.168.187-.183.08-.332.105-.446.078l-1.199-3.006c-.06-.14-.078-.24-.053-.302zM52.776 6.374c.348-.045.76-.11 1.233-.194.474-.084.88-.148 1.216-.19.384-.05.775-.041 1.173.026.41.066.81.192 1.2.378.402.185.746.477 1.034.878.287.4.467.885.54 1.455a3.11 3.11 0 01-.087 1.127c-.09.402-.251.806-.483 1.214-.233.396-.572.747-1.017 1.052a3.488 3.488 0 01-1.525.55c-.651.083-1.12-.022-1.405-.317-.08-.072-.115-.204-.104-.394.006-.048.021-.068.046-.059a3.4 3.4 0 001.193.042c.581-.074 1.05-.382 1.406-.924.356-.542.491-1.15.405-1.824-.105-.826-.368-1.454-.79-1.884-.422-.442-1.011-.615-1.767-.518-.523.067-.924.16-1.205.279-.056.019-.091.07-.104.155-.014.072-.015.25-.003.532.024.28.072.7.143 1.257l.794 6.225c.1.78.21 1.279.333 1.5.077.143.296.24.657.287.372.047.634.061.785.042.046-.006.08.072.1.235a.848.848 0 010 .266c-1.17.09-1.93.158-2.279.203l-2.116.36c-.039-.03-.07-.133-.092-.307-.02-.152-.011-.23.023-.234.163-.02.385-.084.667-.191.282-.107.445-.217.49-.33.063-.149.034-.7-.087-1.654l-.841-6.59c-.088-.687-.192-1.181-.313-1.485-.047-.088-.233-.153-.557-.194-.312-.043-.544-.055-.695-.035-.047.006-.079-.061-.097-.2-.02-.152-.008-.253.032-.306l2.097-.233zm13.477.41c-1.101-.167-2.043.182-2.825 1.047s-1.27 1.93-1.46 3.192a7.66 7.66 0 00.056 2.693 5.018 5.018 0 001.095 2.282 3.383 3.383 0 002.119 1.157 2.936 2.936 0 002.054-.417 4.303 4.303 0 001.487-1.606 6.617 6.617 0 00.746-2.234c.14-.927.12-1.819-.058-2.675a4.888 4.888 0 00-1.098-2.265 3.342 3.342 0 00-2.116-1.174zm-5.074 8.76c-.904-1.31-1.234-2.777-.99-4.4.246-1.621.994-2.924 2.244-3.908 1.264-.994 2.661-1.375 4.19-1.143 1.53.232 2.752 1.01 3.666 2.334.916 1.312 1.251 2.78 1.006 4.402-.245 1.622-.998 2.924-2.26 3.906-1.263.982-2.659 1.357-4.188 1.125-1.53-.232-2.752-1.004-3.668-2.316zm19.138 1.081l-1.185 2.59c-.341.746-.459 1.227-.352 1.444.092.223.345.43.76.62.192.088.394.168.606.24.223.076.498.138.824.185.342.041.659.038.95-.008.293-.047.582-.172.868-.375a2.1 2.1 0 00.686-.865 2.821 2.821 0 00.132-2.106c-.223-.722-.825-1.308-1.805-1.758a19.42 19.42 0 00-1.227-.487c-.025.027-.11.2-.257.52zm1.572-3.436l-1.024 2.238c.86.317 1.52.595 1.978.831.95.488 1.645 1.194 2.085 2.119.456.919.499 1.783.128 2.593-.42.917-1.13 1.486-2.135 1.708-.993.227-2.096.062-3.31-.496l-2.204-1.013-1.939-.833c-.017-.047.006-.14.07-.278.063-.138.11-.2.142-.186.138.064.358.12.658.168.311.052.515.043.612-.029.133-.093.4-.577.8-1.45l2.764-6.043c.303-.66.48-1.134.534-1.419.002-.089-.124-.237-.377-.444-.254-.206-.444-.339-.572-.398-.042-.02-.032-.098.031-.237.064-.138.127-.22.189-.242a54.61 54.61 0 001.87.898c.49.225 1.327.59 2.513 1.097 1.202.5 2.106.89 2.713 1.17-.099.328-.21.78-.331 1.356-.117.566-.187.901-.21 1.007-.077.029-.18.014-.307-.045-.139-.064-.196-.135-.173-.215.098-.664.04-1.142-.175-1.434-.198-.298-.548-.562-1.049-.792l-1.07-.492c-.915-.42-1.416-.567-1.5-.438-.181.226-.418.66-.71 1.299z" fill="#BFADA3"/><path d="M90.02 26.6l2.013-2.35.019-.076a124.642 124.642 0 00-1.937-1.712c-1.368-1.176-2.071-1.742-2.11-1.698l-1.977 2.31c-.473.552-.791.997-.957 1.334-.035.077.036.247.214.508.194.26.335.427.424.504.027.023-.005.088-.097.194a.727.727 0 01-.208.216 71.91 71.91 0 00-1.502-1.408c-.044-.038-.597-.474-1.657-1.308-.005-.066.035-.148.119-.246.106-.125.177-.172.213-.141.124.107.32.229.588.366.277.146.46.194.547.146.268-.187.638-.556 1.11-1.108l4.436-5.182c.465-.543.773-.966.924-1.268.027-.085-.053-.254-.238-.506-.178-.261-.324-.441-.44-.54-.035-.031 0-.109.107-.233.099-.116.174-.168.225-.155.177.153.424.388.739.705.322.308.59.554.803.737.222.191.51.423.863.695.36.264.612.457.754.58-.013.05-.073.13-.181.238-.092.106-.15.148-.177.125-.09-.076-.28-.186-.574-.33-.276-.145-.45-.194-.522-.147-.314.223-.704.607-1.17 1.15l-1.714 2.003-.02.051c.855.767 1.527 1.36 2.016 1.78.506.436 1.167.989 1.982 1.658.033-.002.057-.012.072-.03l1.75-2.043c.456-.534.769-.953.937-1.257.026-.086-.053-.254-.238-.506-.178-.261-.325-.441-.44-.54-.036-.031-.004-.104.095-.22.1-.116.178-.172.236-.168.178.153.424.388.74.705.322.308.594.557.816.748.222.191.505.42.85.684.35.256.598.445.74.568a.604.604 0 01-.133.21c-.115.133-.19.184-.225.154-.09-.076-.28-.187-.573-.33-.277-.146-.451-.195-.522-.148-.315.224-.705.607-1.17 1.15l-4.344 5.075c-.472.552-.791.996-.956 1.333-.036.078.035.247.213.508.194.26.336.428.424.504.036.03-.003.113-.118.246a.779.779 0 01-.186.164 77.732 77.732 0 00-1.476-1.384c-.053-.046-.61-.486-1.67-1.32-.005-.066.038-.153.13-.26.099-.115.166-.158.201-.128.125.107.321.23.589.367.277.146.459.194.547.146.266-.204.632-.577 1.097-1.12zm14.35 2.515c.295.437.819 1.179 1.57 2.227a90.44 90.44 0 011.714 2.406c-.255.23-.584.56-.987.989-.393.423-.626.674-.7.752-.081-.015-.161-.081-.24-.198-.086-.126-.098-.217-.036-.273.434-.508.635-.942.603-1.303-.022-.367-.187-.78-.496-1.235l-.66-.976c-.565-.834-.917-1.218-1.056-1.152-.272.1-.699.347-1.28.742l-2.326 1.582c-.059.04.054.268.336.685l.532.786.394.582c.085.127.194.244.324.354.131.11.214.18.25.212.036.033.132.038.288.018.162-.012.271-.029.326-.052.064-.03.228-.091.49-.185.075-.036.155.009.24.135.085.126.12.23.105.312l-2.748 1.867c-.065-.012-.14-.082-.226-.208-.072-.107-.087-.202-.046-.287.226-.253.385-.446.478-.58.103-.141.154-.232.154-.275a1.07 1.07 0 00.013-.2c.005-.16-.301-.695-.918-1.608-.48-.708-.763-1.033-.85-.973l-2.253 1.531c-.64.435-1.048.783-1.225 1.045-.077.095.098.458.525 1.089l.473.699c.604.893 1.1 1.448 1.488 1.666.437.227 1.133.2 2.089-.081.071-.02.146.028.225.145.118.174.168.31.149.408-.213.06-.546.145-.996.252-.434.111-.817.216-1.147.313a4.96 4.96 0 00-.802.29c-.335-.495-.854-1.283-1.557-2.364-.703-1.08-1.284-1.96-1.744-2.64l-1.226-1.718c.01-.048.077-.116.203-.201.126-.086.199-.114.219-.085.085.126.244.287.476.484.238.206.418.304.538.293.162-.011.64-.287 1.435-.827l5.495-3.735c.562-.382.956-.7 1.182-.952.048-.075.017-.267-.092-.575-.11-.308-.204-.52-.283-.637-.026-.039.024-.101.15-.187.126-.085.221-.122.286-.11.322.519.703 1.103 1.144 1.753zm6.176 11.658c.182.495.51 1.342.986 2.54a90.51 90.51 0 011.081 2.75c-.303.161-.702.401-1.196.72-.484.316-.771.502-.862.56-.076-.034-.137-.118-.186-.25-.052-.143-.042-.234.031-.273.545-.388.845-.76.902-1.118.067-.362.006-.801-.183-1.319l-.405-1.106c-.346-.946-.595-1.404-.746-1.373-.288.03-.762.167-1.422.41l-2.64.97c-.066.024-.013.273.161.746l.326.892.241.66c.053.143.129.283.229.421.101.138.165.227.192.267.027.04.118.069.275.086.16.029.269.038.328.03.07-.014.244-.034.521-.06.081-.018.148.045.2.188.053.143.061.252.026.327l-3.118 1.146c-.06-.028-.116-.113-.169-.256-.044-.121-.036-.218.025-.29.28-.19.481-.34.604-.447.134-.112.206-.188.216-.23a1.04 1.04 0 00.061-.19c.044-.154-.124-.747-.502-1.782-.294-.803-.491-1.187-.59-1.15l-2.557.94c-.726.266-1.206.505-1.441.716-.098.074-.016.468.246 1.183l.29.793c.37 1.012.717 1.671 1.041 1.977.369.326 1.051.469 2.047.427.074-.002.135.063.184.195.072.198.087.342.046.433-.223.006-.565.007-1.029.003-.448.002-.844.01-1.188.025-.334.01-.616.039-.848.087-.206-.562-.519-1.452-.94-2.67a180.503 180.503 0 00-1.054-2.984l-.774-1.963c.02-.045.103-.093.246-.146.143-.053.22-.062.232-.03.052.144.167.339.345.586.182.257.332.396.451.414.161.029.692-.123 1.594-.454l6.236-2.292c.638-.234 1.097-.447 1.377-.637.065-.061.082-.255.05-.58-.032-.326-.072-.554-.12-.687-.016-.044.047-.092.19-.144.143-.053.245-.065.305-.037.187.58.416 1.239.685 1.976z" fill="#BFADA3"/><path d="M60.65 70.286V59.411m0 0V48.536m0 10.875h10.851m-10.85 0H49.798" stroke="#000" stroke-width="2.946" stroke-linecap="round"/></svg>